<?xml version="1.0" encoding="UTF-8"?>
<svg xmlns="http://www.w3.org/2000/svg" xmlns:xlink="http://www.w3.org/1999/xlink" width="55px" height="55px" viewBox="0 0 55 55" version="1.1">
<g id="surface1">
<path style=" stroke:none;fill-rule:nonzero;fill:rgb(0%,0%,0%);fill-opacity:1;" d="M 39.148438 7.886719 C 35.265625 4.824219 30.207031 3.070312 25.261719 3.070312 C 24.753906 3.070312 24.34375 3.480469 24.34375 3.988281 C 24.34375 4.5 24.753906 4.910156 25.261719 4.910156 C 29.800781 4.910156 34.445312 6.523438 38.007812 9.332031 C 40.871094 11.589844 42.792969 14.53125 42.792969 16.65625 C 42.792969 17.164062 43.203125 17.574219 43.710938 17.574219 C 44.222656 17.574219 44.632812 17.164062 44.632812 16.65625 C 44.632812 13.914062 42.53125 10.554688 39.148438 7.886719 Z M 39.148438 7.886719 "/>
<path style=" stroke:none;fill-rule:nonzero;fill:rgb(0%,0%,0%);fill-opacity:1;" d="M 47.484375 22.484375 C 46.996094 22.097656 46.488281 21.742188 45.964844 21.410156 C 47.117188 20.054688 47.703125 18.460938 47.703125 16.652344 C 47.703125 12.941406 45.214844 8.761719 41.046875 5.476562 C 36.570312 1.945312 30.964844 0 25.261719 0 C 19.5625 0 13.957031 1.945312 9.476562 5.476562 C 5.3125 8.761719 2.824219 12.941406 2.824219 16.652344 C 2.824219 20.125 4.925781 22.753906 9.070312 24.472656 C 11.171875 25.347656 13.808594 25.976562 16.941406 26.367188 L 15.710938 41.289062 C 15.671875 41.648438 15.652344 42.007812 15.652344 42.359375 C 15.652344 47.648438 19.964844 51.953125 25.261719 51.953125 C 26.964844 51.953125 28.59375 51.519531 30.039062 50.683594 C 30.335938 51.417969 30.753906 52.097656 31.289062 52.699219 C 32.597656 54.160156 34.476562 55 36.4375 55 C 38.398438 55 40.277344 54.160156 41.582031 52.699219 C 42.890625 51.238281 43.515625 49.285156 43.300781 47.339844 L 42.476562 37.34375 C 44.320312 37.097656 45.910156 36.730469 47.234375 36.238281 C 51.316406 34.714844 52.175781 32.226562 52.175781 30.40625 C 52.175781 27.761719 50.421875 24.800781 47.484375 22.484375 Z M 9.773438 22.773438 C 6.335938 21.347656 4.667969 19.347656 4.667969 16.652344 C 4.667969 13.546875 6.945312 9.816406 10.617188 6.921875 C 14.773438 3.644531 19.972656 1.839844 25.261719 1.839844 C 30.550781 1.839844 35.753906 3.644531 39.910156 6.921875 C 43.578125 9.816406 45.859375 13.546875 45.859375 16.652344 C 45.859375 18.144531 45.355469 19.402344 44.316406 20.488281 C 41.875 19.292969 39.171875 18.652344 36.4375 18.652344 C 32.449219 18.652344 28.523438 20.011719 25.390625 22.484375 C 24.421875 23.25 23.582031 24.082031 22.890625 24.953125 C 17.292969 24.792969 12.882812 24.0625 9.773438 22.773438 Z M 29.574219 47.339844 C 29.519531 47.832031 29.519531 48.324219 29.570312 48.808594 C 28.296875 49.664062 26.820312 50.113281 25.261719 50.113281 C 20.980469 50.113281 17.492188 46.636719 17.492188 42.359375 C 17.492188 42.070312 17.507812 41.773438 17.542969 41.480469 C 17.542969 41.46875 17.542969 41.460938 17.546875 41.453125 L 18.769531 26.5625 C 19.710938 26.644531 20.6875 26.710938 21.703125 26.753906 C 21.050781 27.976562 20.699219 29.222656 20.699219 30.40625 C 20.699219 33.703125 23.386719 35.398438 25.640625 36.238281 C 26.964844 36.730469 28.554688 37.097656 30.398438 37.34375 Z M 40.210938 51.46875 C 39.253906 52.542969 37.875 53.160156 36.4375 53.160156 C 35 53.160156 33.621094 52.542969 32.664062 51.46875 C 31.703125 50.398438 31.246094 48.960938 31.40625 47.53125 C 31.40625 47.523438 31.40625 47.515625 31.410156 47.503906 L 32.230469 37.539062 C 33.527344 37.644531 34.929688 37.699219 36.4375 37.699219 C 37.941406 37.699219 39.34375 37.644531 40.644531 37.539062 L 41.464844 47.503906 C 41.46875 47.515625 41.46875 47.523438 41.46875 47.53125 C 41.628906 48.960938 41.171875 50.398438 40.210938 51.46875 Z M 36.4375 35.859375 C 31.246094 35.859375 22.542969 35.148438 22.542969 30.40625 C 22.542969 28.351562 24.070312 25.871094 26.53125 23.929688 C 29.339844 21.714844 32.859375 20.492188 36.4375 20.492188 C 40.015625 20.492188 43.535156 21.714844 46.34375 23.929688 C 48.804688 25.871094 50.332031 28.351562 50.332031 30.40625 C 50.332031 35.148438 41.628906 35.859375 36.4375 35.859375 Z M 36.4375 35.859375 "/>
<path style=" stroke:none;fill-rule:nonzero;fill:rgb(0%,0%,0%);fill-opacity:1;" d="M 45.585938 24.894531 C 43.027344 22.875 39.691406 21.71875 36.4375 21.71875 C 35.929688 21.71875 35.515625 22.132812 35.515625 22.640625 C 35.515625 23.148438 35.929688 23.5625 36.4375 23.5625 C 39.285156 23.5625 42.207031 24.574219 44.445312 26.339844 C 46.511719 27.972656 47.265625 29.664062 47.265625 30.40625 C 47.265625 30.914062 47.675781 31.328125 48.183594 31.328125 C 48.695312 31.328125 49.105469 30.914062 49.105469 30.40625 C 49.105469 28.746094 47.722656 26.582031 45.585938 24.894531 Z M 45.585938 24.894531 "/>
</g>
</svg>
